  0
SECTION
  2
HEADER
  9
$ACADVER
  1
AC1014
  9
$HANDSEED
  5
FFFF
  9
$MEASUREMENT
 70
     1
  0
ENDSEC
  0
SECTION
  2
TABLES
  0
TABLE
  2
VPORT
  5
8
330
0
100
AcDbSymbolTable
 70
     4
  0
VPORT
  5
2E
330
8
100
AcDbSymbolTableRecord
100
AcDbViewportTableRecord
  2
*ACTIVE
 70
     0
 10
0.0
 20
0.0
 11
1.0
 21
1.0
 12
210.0
 22
148.5
 13
0.0
 23
0.0
 14
10.0
 24
10.0
 15
10.0
 25
10.0
 16
0.0
 26
0.0
 36
1.0
 17
0.0
 27
0.0
 37
0.0
 40
341.0
 41
1.24
 42
50.0
 43
0.0
 44
0.0
 50
0.0
 51
0.0
 71
     0
 72
   100
 73
     1
 74
     3
 75
     0
 76
     0
 77
     0
 78
     0
  0
ENDTAB
  0
TABLE
  2
LTYPE
  5
5
330
0
100
AcDbSymbolTable
 70
     1
  0
LTYPE
  5
14
330
5
100
AcDbSymbolTableRecord
100
AcDbLinetypeTableRecord
  2
BYBLOCK
 70
     0
  3

 72
    65
 73
     0
 40
0.0
  0
LTYPE
  5
15
330
5
100
AcDbSymbolTableRecord
100
AcDbLinetypeTableRecord
  2
BYLAYER
 70
     0
  3

 72
    65
 73
     0
 40
0.0
  0
LTYPE
  5
16
330
5
100
AcDbSymbolTableRecord
100
AcDbLinetypeTableRecord
  2
CONTINUOUS
 70
     0
  3
Solid line
 72
    65
 73
     0
 40
0.0
  0
ENDTAB
  0
TABLE
  2
LAYER
  5
2
100
AcDbSymbolTable
 70
2
  0
LAYER
  5
50
100
AcDbSymbolTableRecord
100
AcDbLayerTableRecord
  2
0
 70
0
  6
CONTINUOUS
  0
LAYER
  5
51
100
AcDbSymbolTableRecord
100
AcDbLayerTableRecord
  2
Layer_1
 70
0
  6
CONTINUOUS
  0
ENDTAB
  0
TABLE
  2
STYLE
  5
3
330
0
100
AcDbSymbolTable
 70
     1
  0
STYLE
  5
11
330
3
100
AcDbSymbolTableRecord
100
AcDbTextStyleTableRecord
  2
STANDARD
 70
     0
 40
0.0
 41
1.0
 50
0.0
 71
     0
 42
2.5
  3
txt
  4

  0
ENDTAB
  0
TABLE
  2
VIEW
  5
6
330
0
100
AcDbSymbolTable
 70
     0
  0
ENDTAB
  0
TABLE
  2
UCS
  5
7
330
0
100
AcDbSymbolTable
 70
     0
  0
ENDTAB
  0
TABLE
  2
APPID
  5
9
330
0
100
AcDbSymbolTable
 70
     2
  0
APPID
  5
12
330
9
100
AcDbSymbolTableRecord
100
AcDbRegAppTableRecord
  2
ACAD
 70
     0
  0
ENDTAB
  0
TABLE
  2
DIMSTYLE
  5
A
330
0
100
AcDbSymbolTable
 70
     1
  0
DIMSTYLE
105
27
330
A
100
AcDbSymbolTableRecord
100
AcDbDimStyleTableRecord
  2
ISO-25
 70
     0
  3

  4

  5

  6

  7

 40
1.0
 41
2.5
 42
0.625
 43
3.75
 44
1.25
 45
0.0
 46
0.0
 47
0.0
 48
0.0
140
2.5
141
2.5
142
0.0
143
0.03937007874016
144
1.0
145
0.0
146
1.0
147
0.625
 71
     0
 72
     0
 73
     0
 74
     0
 75
     0
 76
     0
 77
     1
 78
     8
170
     0
171
     3
172
     1
173
     0
174
     0
175
     0
176
     0
177
     0
178
     0
270
     2
271
     2
272
     2
273
     2
274
     3
340
11
275
     0
280
     0
281
     0
282
     0
283
     0
284
     8
285
     0
286
     0
287
     3
288
     0
  0
ENDTAB
  0
TABLE
  2
BLOCK_RECORD
  5
1
330
0
100
AcDbSymbolTable
 70
     1
  0
BLOCK_RECORD
  5
1F
330
1
100
AcDbSymbolTableRecord
100
AcDbBlockTableRecord
  2
*MODEL_SPACE
  0
BLOCK_RECORD
  5
1B
330
1
100
AcDbSymbolTableRecord
100
AcDbBlockTableRecord
  2
*PAPER_SPACE
  0
ENDTAB
  0
ENDSEC
  0
SECTION
  2
BLOCKS
  0
BLOCK
  5
20
330
1F
100
AcDbEntity
  8
0
100
AcDbBlockBegin
  2
*MODEL_SPACE
 70
     0
 10
0.0
 20
0.0
 30
0.0
  3
*MODEL_SPACE
  1

  0
ENDBLK
  5
21
330
1F
100
AcDbEntity
  8
0
100
AcDbBlockEnd
  0
BLOCK
  5
1C
330
1B
100
AcDbEntity
 67
     1
  8
0
100
AcDbBlockBegin
  2
*PAPER_SPACE
  1

  0
ENDBLK
  5
1D
330
1B
100
AcDbEntity
 67
     1
  8
0
100
AcDbBlockEnd
  0
ENDSEC
  0
SECTION
  2
ENTITIES
  0
LINE
  5
100
100
AcDbEntity
  8
Layer_1
 62
7
100
AcDbLine
 10
41.604432
 20
286.968317
 30
0.0
 11
39.998842
 21
287.661943
 31
0.0
  0
LINE
  5
101
100
AcDbEntity
  8
Layer_1
 62
7
100
AcDbLine
 10
39.998842
 20
287.661943
 30
0.0
 11
38.326819
 21
288.244415
 31
0.0
  0
LINE
  5
102
100
AcDbEntity
  8
Layer_1
 62
7
100
AcDbLine
 10
38.326819
 20
288.244415
 30
0.0
 11
36.597395
 21
288.713002
 31
0.0
  0
LINE
  5
103
100
AcDbEntity
  8
Layer_1
 62
7
100
AcDbLine
 10
36.597395
 20
288.713002
 30
0.0
 11
34.819452
 21
289.063238
 31
0.0
  0
LINE
  5
104
100
AcDbEntity
  8
Layer_1
 62
7
100
AcDbLine
 10
34.819452
 20
289.063238
 30
0.0
 11
33.001864
 21
289.290655
 31
0.0
  0
LINE
  5
105
100
AcDbEntity
  8
Layer_1
 62
7
100
AcDbLine
 10
33.001864
 20
289.290655
 30
0.0
 11
31.152499
 21
289.391229
 31
0.0
  0
LINE
  5
106
100
AcDbEntity
  8
Layer_1
 62
7
100
AcDbLine
 10
31.152499
 20
289.391229
 30
0.0
 11
29.280674
 21
289.361504
 31
0.0
  0
LINE
  5
107
100
AcDbEntity
  8
Layer_1
 62
7
100
AcDbLine
 10
29.280674
 20
289.361504
 30
0.0
 11
27.395262
 21
289.197015
 31
0.0
  0
LINE
  5
108
100
AcDbEntity
  8
Layer_1
 62
7
100
AcDbLine
 10
27.395262
 20
289.197015
 30
0.0
 11
25.504862
 21
288.894020
 31
0.0
  0
LINE
  5
109
100
AcDbEntity
  8
Layer_1
 62
7
100
AcDbLine
 10
25.504862
 20
288.894020
 30
0.0
 11
23.618121
 21
288.447550
 31
0.0
  0
LINE
  5
10a
100
AcDbEntity
  8
Layer_1
 62
7
100
AcDbLine
 10
23.618121
 20
288.447550
 30
0.0
 11
21.743858
 21
287.854366
 31
0.0
  0
LINE
  5
10b
100
AcDbEntity
  8
Layer_1
 62
7
100
AcDbLine
 10
21.743858
 20
287.854366
 30
0.0
 11
19.890948
 21
287.110005
 31
0.0
  0
LINE
  5
10c
100
AcDbEntity
  8
Layer_1
 62
7
100
AcDbLine
 10
19.890948
 20
287.110005
 30
0.0
 11
18.067984
 21
286.210725
 31
0.0
  0
LINE
  5
10d
100
AcDbEntity
  8
Layer_1
 62
7
100
AcDbLine
 10
18.067984
 20
286.210725
 30
0.0
 11
16.283626
 21
285.151553
 31
0.0
  0
LINE
  5
10e
100
AcDbEntity
  8
Layer_1
 62
7
100
AcDbLine
 10
16.283626
 20
285.151553
 30
0.0
 11
14.546390
 21
283.929984
 31
0.0
  0
LINE
  5
10f
100
AcDbEntity
  8
Layer_1
 62
7
100
AcDbLine
 10
14.546390
 20
283.929984
 30
0.0
 11
12.865954
 21
282.540602
 31
0.0
  0
LINE
  5
110
100
AcDbEntity
  8
Layer_1
 62
7
100
AcDbLine
 10
12.865954
 20
282.540602
 30
0.0
 11
11.249673
 21
280.979603
 31
0.0
  0
LINE
  5
111
100
AcDbEntity
  8
Layer_1
 62
7
100
AcDbLine
 10
11.249673
 20
280.979603
 30
0.0
 11
9.362532
 21
278.140565
 31
0.0
  0
LINE
  5
112
100
AcDbEntity
  8
Layer_1
 62
7
100
AcDbLine
 10
9.362532
 20
278.140565
 30
0.0
 11
7.803946
 21
274.650471
 31
0.0
  0
LINE
  5
113
100
AcDbEntity
  8
Layer_1
 62
7
100
AcDbLine
 10
7.803946
 20
274.650471
 30
0.0
 11
6.551260
 21
270.545643
 31
0.0
  0
LINE
  5
114
100
AcDbEntity
  8
Layer_1
 62
7
100
AcDbLine
 10
6.551260
 20
270.545643
 30
0.0
 11
5.581649
 21
265.860661
 31
0.0
  0
LINE
  5
115
100
AcDbEntity
  8
Layer_1
 62
7
100
AcDbLine
 10
5.581649
 20
265.860661
 30
0.0
 11
4.873463
 21
260.631408
 31
0.0
  0
LINE
  5
116
100
AcDbEntity
  8
Layer_1
 62
7
100
AcDbLine
 10
4.873463
 20
260.631408
 30
0.0
 11
4.403885
 21
254.892470
 31
0.0
  0
LINE
  5
117
100
AcDbEntity
  8
Layer_1
 62
7
100
AcDbLine
 10
4.403885
 20
254.892470
 30
0.0
 11
4.150534
 21
248.679435
 31
0.0
  0
LINE
  5
118
100
AcDbEntity
  8
Layer_1
 62
7
100
AcDbLine
 10
4.150534
 20
248.679435
 30
0.0
 11
4.091033
 21
242.027903
 31
0.0
  0
LINE
  5
119
100
AcDbEntity
  8
Layer_1
 62
7
100
AcDbLine
 10
4.091033
 20
242.027903
 30
0.0
 11
4.202057
 21
234.972672
 31
0.0
  0
LINE
  5
11a
100
AcDbEntity
  8
Layer_1
 62
7
100
AcDbLine
 10
4.202057
 20
234.972672
 30
0.0
 11
4.461958
 21
227.549627
 31
0.0
  0
LINE
  5
11b
100
AcDbEntity
  8
Layer_1
 62
7
100
AcDbLine
 10
4.461958
 20
227.549627
 30
0.0
 11
4.847914
 21
219.793347
 31
0.0
  0
LINE
  5
11c
100
AcDbEntity
  8
Layer_1
 62
7
100
AcDbLine
 10
4.847914
 20
219.793347
 30
0.0
 11
5.338272
 21
211.739713
 31
0.0
  0
LINE
  5
11d
100
AcDbEntity
  8
Layer_1
 62
7
100
AcDbLine
 10
5.338272
 20
211.739713
 30
0.0
 11
5.909425
 21
203.424252
 31
0.0
  0
LINE
  5
11e
100
AcDbEntity
  8
Layer_1
 62
7
100
AcDbLine
 10
5.909425
 20
203.424252
 30
0.0
 11
6.539054
 21
194.881329
 31
0.0
  0
LINE
  5
11f
100
AcDbEntity
  8
Layer_1
 62
7
100
AcDbLine
 10
6.539054
 20
194.881329
 30
0.0
 11
7.205008
 21
186.147048
 31
0.0
  0
LINE
  5
120
100
AcDbEntity
  8
Layer_1
 62
7
100
AcDbLine
 10
7.205008
 20
186.147048
 30
0.0
 11
7.885195
 21
177.256272
 31
0.0
  0
LINE
  5
121
100
AcDbEntity
  8
Layer_1
 62
7
100
AcDbLine
 10
7.885195
 20
177.256272
 30
0.0
 11
8.556503
 21
168.244310
 31
0.0
  0
LINE
  5
122
100
AcDbEntity
  8
Layer_1
 62
7
100
AcDbLine
 10
8.556503
 20
168.244310
 30
0.0
 11
9.196563
 21
159.146758
 31
0.0
  0
LINE
  5
123
100
AcDbEntity
  8
Layer_1
 62
7
100
AcDbLine
 10
9.196563
 20
159.146758
 30
0.0
 11
9.783275
 21
149.998485
 31
0.0
  0
LINE
  5
124
100
AcDbEntity
  8
Layer_1
 62
7
100
AcDbLine
 10
9.783275
 20
149.998485
 30
0.0
 11
10.293758
 21
140.835305
 31
0.0
  0
LINE
  5
125
100
AcDbEntity
  8
Layer_1
 62
7
100
AcDbLine
 10
10.293758
 20
140.835305
 30
0.0
 11
10.705636
 21
131.692812
 31
0.0
  0
LINE
  5
126
100
AcDbEntity
  8
Layer_1
 62
7
100
AcDbLine
 10
10.705636
 20
131.692812
 30
0.0
 11
10.996376
 21
122.604864
 31
0.0
  0
LINE
  5
127
100
AcDbEntity
  8
Layer_1
 62
7
100
AcDbLine
 10
10.996376
 20
122.604864
 30
0.0
 11
11.143532
 21
113.608286
 31
0.0
  0
LINE
  5
128
100
AcDbEntity
  8
Layer_1
 62
7
100
AcDbLine
 10
11.143532
 20
113.608286
 30
0.0
 11
11.124793
 21
104.737440
 31
0.0
  0
LINE
  5
129
100
AcDbEntity
  8
Layer_1
 62
7
100
AcDbLine
 10
11.124793
 20
104.737440
 30
0.0
 11
10.917272
 21
96.028144
 31
0.0
  0
LINE
  5
12a
100
AcDbEntity
  8
Layer_1
 62
7
100
AcDbLine
 10
10.917272
 20
96.028144
 30
0.0
 11
10.499385
 21
87.515047
 31
0.0
  0
LINE
  5
12b
100
AcDbEntity
  8
Layer_1
 62
7
100
AcDbLine
 10
10.499385
 20
87.515047
 30
0.0
 11
9.847743
 21
79.234175
 31
0.0
  0
LINE
  5
12c
100
AcDbEntity
  8
Layer_1
 62
7
100
AcDbLine
 10
9.847743
 20
79.234175
 30
0.0
 11
8.939746
 21
71.220625
 31
0.0
  0
LINE
  5
12d
100
AcDbEntity
  8
Layer_1
 62
7
100
AcDbLine
 10
8.939746
 20
71.220625
 30
0.0
 11
7.754024
 21
63.509546
 31
0.0
  0
LINE
  5
12e
100
AcDbEntity
  8
Layer_1
 62
7
100
AcDbLine
 10
7.754024
 20
63.509546
 30
0.0
 11
6.266975
 21
56.136474
 31
0.0
  0
LINE
  5
12f
100
AcDbEntity
  8
Layer_1
 62
7
100
AcDbLine
 10
6.266975
 20
56.136474
 30
0.0
 11
4.457005
 21
49.136050
 31
0.0
  0
LINE
  5
130
100
AcDbEntity
  8
Layer_1
 62
7
100
AcDbLine
 10
4.457005
 20
49.136050
 30
0.0
 11
2.300728
 21
42.544313
 31
0.0
  0
LINE
  5
131
100
AcDbEntity
  8
Layer_1
 62
7
100
AcDbLine
 10
2.300728
 20
42.544313
 30
0.0
 11
1.295117
 21
38.686617
 31
0.0
  0
LINE
  5
132
100
AcDbEntity
  8
Layer_1
 62
7
100
AcDbLine
 10
1.295117
 20
38.686617
 30
0.0
 11
0.617815
 21
35.005816
 31
0.0
  0
LINE
  5
133
100
AcDbEntity
  8
Layer_1
 62
7
100
AcDbLine
 10
0.617815
 20
35.005816
 30
0.0
 11
0.252478
 21
31.503017
 31
0.0
  0
LINE
  5
134
100
AcDbEntity
  8
Layer_1
 62
7
100
AcDbLine
 10
0.252478
 20
31.503017
 30
0.0
 11
0.181011
 21
28.179481
 31
0.0
  0
LINE
  5
135
100
AcDbEntity
  8
Layer_1
 62
7
100
AcDbLine
 10
0.181011
 20
28.179481
 30
0.0
 11
0.388303
 21
25.036378
 31
0.0
  0
LINE
  5
136
100
AcDbEntity
  8
Layer_1
 62
7
100
AcDbLine
 10
0.388303
 20
25.036378
 30
0.0
 11
0.856039
 21
22.074467
 31
0.0
  0
LINE
  5
137
100
AcDbEntity
  8
Layer_1
 62
7
100
AcDbLine
 10
0.856039
 20
22.074467
 30
0.0
 11
1.567868
 21
19.294855
 31
0.0
  0
LINE
  5
138
100
AcDbEntity
  8
Layer_1
 62
7
100
AcDbLine
 10
1.567868
 20
19.294855
 30
0.0
 11
2.507665
 21
16.699155
 31
0.0
  0
LINE
  5
139
100
AcDbEntity
  8
Layer_1
 62
7
100
AcDbLine
 10
2.507665
 20
16.699155
 30
0.0
 11
3.658350
 21
14.288179
 31
0.0
  0
LINE
  5
13a
100
AcDbEntity
  8
Layer_1
 62
7
100
AcDbLine
 10
3.658350
 20
14.288179
 30
0.0
 11
5.003060
 21
12.063280
 31
0.0
  0
LINE
  5
13b
100
AcDbEntity
  8
Layer_1
 62
7
100
AcDbLine
 10
5.003060
 20
12.063280
 30
0.0
 11
6.524729
 21
10.025240
 31
0.0
  0
LINE
  5
13c
100
AcDbEntity
  8
Layer_1
 62
7
100
AcDbLine
 10
6.524729
 20
10.025240
 30
0.0
 11
8.206491
 21
8.175443
 31
0.0
  0
LINE
  5
13d
100
AcDbEntity
  8
Layer_1
 62
7
100
AcDbLine
 10
8.206491
 20
8.175443
 30
0.0
 11
10.032505
 21
6.514706
 31
0.0
  0
LINE
  5
13e
100
AcDbEntity
  8
Layer_1
 62
7
100
AcDbLine
 10
10.032505
 20
6.514706
 30
0.0
 11
11.984904
 21
5.044836
 31
0.0
  0
LINE
  5
13f
100
AcDbEntity
  8
Layer_1
 62
7
100
AcDbLine
 10
11.984904
 20
5.044836
 30
0.0
 11
14.047619
 21
3.766229
 31
0.0
  0
LINE
  5
140
100
AcDbEntity
  8
Layer_1
 62
7
100
AcDbLine
 10
14.047619
 20
3.766229
 30
0.0
 11
16.203794
 21
2.680181
 31
0.0
  0
LINE
  5
141
100
AcDbEntity
  8
Layer_1
 62
7
100
AcDbLine
 10
16.203794
 20
2.680181
 30
0.0
 11
18.436067
 21
1.788274
 31
0.0
  0
LINE
  5
142
100
AcDbEntity
  8
Layer_1
 62
7
100
AcDbLine
 10
18.436067
 20
1.788274
 30
0.0
 11
20.728592
 21
1.091355
 31
0.0
  0
LINE
  5
143
100
AcDbEntity
  8
Layer_1
 62
7
100
AcDbLine
 10
20.728592
 20
1.091355
 30
0.0
 11
23.063569
 21
0.589987
 31
0.0
  0
LINE
  5
144
100
AcDbEntity
  8
Layer_1
 62
7
100
AcDbLine
 10
23.063569
 20
0.589987
 30
0.0
 11
25.425083
 21
0.286259
 31
0.0
  0
LINE
  5
145
100
AcDbEntity
  8
Layer_1
 62
7
100
AcDbLine
 10
25.425083
 20
0.286259
 30
0.0
 11
27.796060
 21
0.181047
 31
0.0
  0
LINE
  5
146
100
AcDbEntity
  8
Layer_1
 62
7
100
AcDbLine
 10
27.796060
 20
0.181047
 30
0.0
 11
30.159926
 21
0.274886
 31
0.0
  0
LINE
  5
147
100
AcDbEntity
  8
Layer_1
 62
7
100
AcDbLine
 10
30.159926
 20
0.274886
 30
0.0
 11
32.499323
 21
0.569385
 31
0.0
  0
LINE
  5
148
100
AcDbEntity
  8
Layer_1
 62
7
100
AcDbLine
 10
32.499323
 20
0.569385
 30
0.0
 11
34.797388
 21
1.065814
 31
0.0
  0
LINE
  5
149
100
AcDbEntity
  8
Layer_1
 62
7
100
AcDbLine
 10
34.797388
 20
1.065814
 30
0.0
 11
37.038283
 21
1.765104
 31
0.0
  0
LINE
  5
14a
100
AcDbEntity
  8
Layer_1
 62
7
100
AcDbLine
 10
37.038283
 20
1.765104
 30
0.0
 11
39.204925
 21
2.668074
 31
0.0
  0
LINE
  5
14b
100
AcDbEntity
  8
Layer_1
 62
7
100
AcDbLine
 10
39.204925
 20
2.668074
 30
0.0
 11
41.279950
 21
3.776219
 31
0.0
  0
LINE
  5
14c
100
AcDbEntity
  8
Layer_1
 62
7
100
AcDbLine
 10
41.279950
 20
3.776219
 30
0.0
 11
43.246508
 21
5.090952
 31
0.0
  0
LINE
  5
14d
100
AcDbEntity
  8
Layer_1
 62
7
100
AcDbLine
 10
43.246508
 20
5.090952
 30
0.0
 11
45.089259
 21
6.612863
 31
0.0
  0
LINE
  5
14e
100
AcDbEntity
  8
Layer_1
 62
7
100
AcDbLine
 10
45.089259
 20
6.612863
 30
0.0
 11
46.789602
 21
8.343478
 31
0.0
  0
LINE
  5
14f
100
AcDbEntity
  8
Layer_1
 62
7
100
AcDbLine
 10
46.789602
 20
8.343478
 30
0.0
 11
48.331696
 21
10.283671
 31
0.0
  0
LINE
  5
150
100
AcDbEntity
  8
Layer_1
 62
7
100
AcDbLine
 10
48.331696
 20
10.283671
 30
0.0
 11
49.699189
 21
12.434543
 31
0.0
  0
LINE
  5
151
100
AcDbEntity
  8
Layer_1
 62
7
100
AcDbLine
 10
49.699189
 20
12.434543
 30
0.0
 11
51.349989
 21
16.354610
 31
0.0
  0
LINE
  5
152
100
AcDbEntity
  8
Layer_1
 62
7
100
AcDbLine
 10
51.349989
 20
16.354610
 30
0.0
 11
52.629401
 21
20.625758
 31
0.0
  0
LINE
  5
153
100
AcDbEntity
  8
Layer_1
 62
7
100
AcDbLine
 10
52.629401
 20
20.625758
 30
0.0
 11
53.564073
 21
25.238773
 31
0.0
  0
LINE
  5
154
100
AcDbEntity
  8
Layer_1
 62
7
100
AcDbLine
 10
53.564073
 20
25.238773
 30
0.0
 11
54.181169
 21
30.184244
 31
0.0
  0
LINE
  5
155
100
AcDbEntity
  8
Layer_1
 62
7
100
AcDbLine
 10
54.181169
 20
30.184244
 30
0.0
 11
54.507344
 21
35.452960
 31
0.0
  0
LINE
  5
156
100
AcDbEntity
  8
Layer_1
 62
7
100
AcDbLine
 10
54.507344
 20
35.452960
 30
0.0
 11
54.569761
 21
41.035508
 31
0.0
  0
LINE
  5
157
100
AcDbEntity
  8
Layer_1
 62
7
100
AcDbLine
 10
54.569761
 20
41.035508
 30
0.0
 11
54.394571
 21
46.922906
 31
0.0
  0
LINE
  5
158
100
AcDbEntity
  8
Layer_1
 62
7
100
AcDbLine
 10
54.394571
 20
46.922906
 30
0.0
 11
54.009939
 21
53.105288
 31
0.0
  0
LINE
  5
159
100
AcDbEntity
  8
Layer_1
 62
7
100
AcDbLine
 10
54.009939
 20
53.105288
 30
0.0
 11
53.441953
 21
59.574917
 31
0.0
  0
LINE
  5
15a
100
AcDbEntity
  8
Layer_1
 62
7
100
AcDbLine
 10
53.441953
 20
59.574917
 30
0.0
 11
52.717618
 21
66.320621
 31
0.0
  0
LINE
  5
15b
100
AcDbEntity
  8
Layer_1
 62
7
100
AcDbLine
 10
52.717618
 20
66.320621
 30
0.0
 11
51.864252
 21
73.334729
 31
0.0
  0
LINE
  5
15c
100
AcDbEntity
  8
Layer_1
 62
7
100
AcDbLine
 10
51.864252
 20
73.334729
 30
0.0
 11
50.908794
 21
80.607305
 31
0.0
  0
LINE
  5
15d
100
AcDbEntity
  8
Layer_1
 62
7
100
AcDbLine
 10
50.908794
 20
80.607305
 30
0.0
 11
49.877898
 21
88.129159
 31
0.0
  0
LINE
  5
15e
100
AcDbEntity
  8
Layer_1
 62
7
100
AcDbLine
 10
49.877898
 20
88.129159
 30
0.0
 11
48.798723
 21
95.890863
 31
0.0
  0
LINE
  5
15f
100
AcDbEntity
  8
Layer_1
 62
7
100
AcDbLine
 10
48.798723
 20
95.890863
 30
0.0
 11
47.697929
 21
103.883219
 31
0.0
  0
LINE
  5
160
100
AcDbEntity
  8
Layer_1
 62
7
100
AcDbLine
 10
47.697929
 20
103.883219
 30
0.0
 11
46.602896
 21
112.097311
 31
0.0
  0
LINE
  5
161
100
AcDbEntity
  8
Layer_1
 62
7
100
AcDbLine
 10
46.602896
 20
112.097311
 30
0.0
 11
45.539550
 21
120.523653
 31
0.0
  0
LINE
  5
162
100
AcDbEntity
  8
Layer_1
 62
7
100
AcDbLine
 10
45.539550
 20
120.523653
 30
0.0
 11
44.536504
 21
129.153402
 31
0.0
  0
LINE
  5
163
100
AcDbEntity
  8
Layer_1
 62
7
100
AcDbLine
 10
44.536504
 20
129.153402
 30
0.0
 11
43.619471
 21
137.976561
 31
0.0
  0
LINE
  5
164
100
AcDbEntity
  8
Layer_1
 62
7
100
AcDbLine
 10
43.619471
 20
137.976561
 30
0.0
 11
42.815318
 21
146.984433
 31
0.0
  0
LINE
  5
165
100
AcDbEntity
  8
Layer_1
 62
7
100
AcDbLine
 10
42.815318
 20
146.984433
 30
0.0
 11
42.151721
 21
156.167383
 31
0.0
  0
LINE
  5
166
100
AcDbEntity
  8
Layer_1
 62
7
100
AcDbLine
 10
42.151721
 20
156.167383
 30
0.0
 11
41.655043
 21
165.516934
 31
0.0
  0
LINE
  5
167
100
AcDbEntity
  8
Layer_1
 62
7
100
AcDbLine
 10
41.655043
 20
165.516934
 30
0.0
 11
41.352227
 21
175.023158
 31
0.0
  0
LINE
  5
168
100
AcDbEntity
  8
Layer_1
 62
7
100
AcDbLine
 10
41.352227
 20
175.023158
 30
0.0
 11
41.271159
 21
184.676922
 31
0.0
  0
LINE
  5
169
100
AcDbEntity
  8
Layer_1
 62
7
100
AcDbLine
 10
41.271159
 20
184.676922
 30
0.0
 11
41.437266
 21
194.468960
 31
0.0
  0
LINE
  5
16a
100
AcDbEntity
  8
Layer_1
 62
7
100
AcDbLine
 10
41.437266
 20
194.468960
 30
0.0
 11
41.878431
 21
204.390141
 31
0.0
  0
LINE
  5
16b
100
AcDbEntity
  8
Layer_1
 62
7
100
AcDbLine
 10
41.878431
 20
204.390141
 30
0.0
 11
42.622033
 21
214.431545
 31
0.0
  0
LINE
  5
16c
100
AcDbEntity
  8
Layer_1
 62
7
100
AcDbLine
 10
42.622033
 20
214.431545
 30
0.0
 11
43.693780
 21
224.583180
 31
0.0
  0
LINE
  5
16d
100
AcDbEntity
  8
Layer_1
 62
7
100
AcDbLine
 10
43.693780
 20
224.583180
 30
0.0
 11
45.121565
 21
234.835916
 31
0.0
  0
LINE
  5
16e
100
AcDbEntity
  8
Layer_1
 62
7
100
AcDbLine
 10
45.121565
 20
234.835916
 30
0.0
 11
46.931755
 21
245.181277
 31
0.0
  0
LINE
  5
16f
100
AcDbEntity
  8
Layer_1
 62
7
100
AcDbLine
 10
46.931755
 20
245.181277
 30
0.0
 11
49.151509
 21
255.609836
 31
0.0
  0
LINE
  5
170
100
AcDbEntity
  8
Layer_1
 62
7
100
AcDbLine
 10
49.151509
 20
255.609836
 30
0.0
 11
51.808273
 21
266.111458
 31
0.0
  0
LINE
  5
171
100
AcDbEntity
  8
Layer_1
 62
7
100
AcDbLine
 10
51.808273
 20
266.111458
 30
0.0
 11
52.243143
 21
267.969183
 31
0.0
  0
LINE
  5
172
100
AcDbEntity
  8
Layer_1
 62
7
100
AcDbLine
 10
52.243143
 20
267.969183
 30
0.0
 11
52.481370
 21
269.778458
 31
0.0
  0
LINE
  5
173
100
AcDbEntity
  8
Layer_1
 62
7
100
AcDbLine
 10
52.481370
 20
269.778458
 30
0.0
 11
52.530889
 21
271.534023
 31
0.0
  0
LINE
  5
174
100
AcDbEntity
  8
Layer_1
 62
7
100
AcDbLine
 10
52.530889
 20
271.534023
 30
0.0
 11
52.401007
 21
273.232425
 31
0.0
  0
LINE
  5
175
100
AcDbEntity
  8
Layer_1
 62
7
100
AcDbLine
 10
52.401007
 20
273.232425
 30
0.0
 11
52.099887
 21
274.868911
 31
0.0
  0
LINE
  5
176
100
AcDbEntity
  8
Layer_1
 62
7
100
AcDbLine
 10
52.099887
 20
274.868911
 30
0.0
 11
51.636552
 21
276.440752
 31
0.0
  0
LINE
  5
177
100
AcDbEntity
  8
Layer_1
 62
7
100
AcDbLine
 10
51.636552
 20
276.440752
 30
0.0
 11
51.019668
 21
277.942975
 31
0.0
  0
LINE
  5
178
100
AcDbEntity
  8
Layer_1
 62
7
100
AcDbLine
 10
51.019668
 20
277.942975
 30
0.0
 11
50.257600
 21
279.371337
 31
0.0
  0
LINE
  5
179
100
AcDbEntity
  8
Layer_1
 62
7
100
AcDbLine
 10
50.257600
 20
279.371337
 30
0.0
 11
49.359668
 21
280.722380
 31
0.0
  0
LINE
  5
17a
100
AcDbEntity
  8
Layer_1
 62
7
100
AcDbLine
 10
49.359668
 20
280.722380
 30
0.0
 11
48.334744
 21
281.991638
 31
0.0
  0
LINE
  5
17b
100
AcDbEntity
  8
Layer_1
 62
7
100
AcDbLine
 10
48.334744
 20
281.991638
 30
0.0
 11
47.190700
 21
283.175088
 31
0.0
  0
LINE
  5
17c
100
AcDbEntity
  8
Layer_1
 62
7
100
AcDbLine
 10
47.190700
 20
283.175088
 30
0.0
 11
45.937136
 21
284.268546
 31
0.0
  0
LINE
  5
17d
100
AcDbEntity
  8
Layer_1
 62
7
100
AcDbLine
 10
45.937136
 20
284.268546
 30
0.0
 11
44.582427
 21
285.267767
 31
0.0
  0
LINE
  5
17e
100
AcDbEntity
  8
Layer_1
 62
7
100
AcDbLine
 10
44.582427
 20
285.267767
 30
0.0
 11
43.135381
 21
286.169516
 31
0.0
  0
LINE
  5
17f
100
AcDbEntity
  8
Layer_1
 62
7
100
AcDbLine
 10
43.135381
 20
286.169516
 30
0.0
 11
41.604432
 21
286.968317
 31
0.0
  0
LINE
  5
180
100
AcDbEntity
  8
Layer_1
 62
7
100
AcDbLine
 10
36.685000
 20
280.173407
 30
0.0
 11
38.900444
 21
278.943471
 31
0.0
  0
LINE
  5
181
100
AcDbEntity
  8
Layer_1
 62
7
100
AcDbLine
 10
38.900444
 20
278.943471
 30
0.0
 11
40.893842
 21
277.162220
 31
0.0
  0
LINE
  5
182
100
AcDbEntity
  8
Layer_1
 62
7
100
AcDbLine
 10
40.893842
 20
277.162220
 30
0.0
 11
42.220120
 21
274.939224
 31
0.0
  0
LINE
  5
183
100
AcDbEntity
  8
Layer_1
 62
7
100
AcDbLine
 10
42.220120
 20
274.939224
 30
0.0
 11
42.434214
 21
272.384051
 31
0.0
  0
LINE
  5
184
100
AcDbEntity
  8
Layer_1
 62
7
100
AcDbLine
 10
42.434214
 20
272.384051
 30
0.0
 11
40.036090
 21
261.791285
 31
0.0
  0
LINE
  5
185
100
AcDbEntity
  8
Layer_1
 62
7
100
AcDbLine
 10
40.036090
 20
261.791285
 30
0.0
 11
37.783318
 21
251.164661
 31
0.0
  0
LINE
  5
186
100
AcDbEntity
  8
Layer_1
 62
7
100
AcDbLine
 10
37.783318
 20
251.164661
 30
0.0
 11
35.790353
 21
240.488700
 31
0.0
  0
LINE
  5
187
100
AcDbEntity
  8
Layer_1
 62
7
100
AcDbLine
 10
35.790353
 20
240.488700
 30
0.0
 11
34.171647
 21
229.747918
 31
0.0
  0
LINE
  5
188
100
AcDbEntity
  8
Layer_1
 62
7
100
AcDbLine
 10
34.171647
 20
229.747918
 30
0.0
 11
31.674672
 21
200.909415
 31
0.0
  0
LINE
  5
189
100
AcDbEntity
  8
Layer_1
 62
7
100
AcDbLine
 10
31.674672
 20
200.909415
 30
0.0
 11
31.591493
 21
171.982160
 31
0.0
  0
LINE
  5
18a
100
AcDbEntity
  8
Layer_1
 62
7
100
AcDbLine
 10
31.591493
 20
171.982160
 30
0.0
 11
33.378690
 21
143.076214
 31
0.0
  0
LINE
  5
18b
100
AcDbEntity
  8
Layer_1
 62
7
100
AcDbLine
 10
33.378690
 20
143.076214
 30
0.0
 11
36.492855
 21
114.301633
 31
0.0
  0
LINE
  5
18c
100
AcDbEntity
  8
Layer_1
 62
7
100
AcDbLine
 10
36.492855
 20
114.301633
 30
0.0
 11
38.916822
 21
95.651965
 31
0.0
  0
LINE
  5
18d
100
AcDbEntity
  8
Layer_1
 62
7
100
AcDbLine
 10
38.916822
 20
95.651965
 30
0.0
 11
41.613743
 21
77.020306
 31
0.0
  0
LINE
  5
18e
100
AcDbEntity
  8
Layer_1
 62
7
100
AcDbLine
 10
41.613743
 20
77.020306
 30
0.0
 11
43.754040
 21
58.345077
 31
0.0
  0
LINE
  5
18f
100
AcDbEntity
  8
Layer_1
 62
7
100
AcDbLine
 10
43.754040
 20
58.345077
 30
0.0
 11
44.508129
 21
39.564712
 31
0.0
  0
LINE
  5
190
100
AcDbEntity
  8
Layer_1
 62
7
100
AcDbLine
 10
44.508129
 20
39.564712
 30
0.0
 11
44.276718
 21
33.518493
 31
0.0
  0
LINE
  5
191
100
AcDbEntity
  8
Layer_1
 62
7
100
AcDbLine
 10
44.276718
 20
33.518493
 30
0.0
 11
43.666339
 21
27.439319
 31
0.0
  0
LINE
  5
192
100
AcDbEntity
  8
Layer_1
 62
7
100
AcDbLine
 10
43.666339
 20
27.439319
 30
0.0
 11
42.140090
 21
21.619423
 31
0.0
  0
LINE
  5
193
100
AcDbEntity
  8
Layer_1
 62
7
100
AcDbLine
 10
42.140090
 20
21.619423
 30
0.0
 11
39.161077
 21
16.351054
 31
0.0
  0
LINE
  5
194
100
AcDbEntity
  8
Layer_1
 62
7
100
AcDbLine
 10
39.161077
 20
16.351054
 30
0.0
 11
33.682339
 21
12.546134
 31
0.0
  0
LINE
  5
195
100
AcDbEntity
  8
Layer_1
 62
7
100
AcDbLine
 10
33.682339
 20
12.546134
 30
0.0
 11
27.126375
 21
11.382052
 31
0.0
  0
LINE
  5
196
100
AcDbEntity
  8
Layer_1
 62
7
100
AcDbLine
 10
27.126375
 20
11.382052
 30
0.0
 11
20.523560
 21
12.685241
 31
0.0
  0
LINE
  5
197
100
AcDbEntity
  8
Layer_1
 62
7
100
AcDbLine
 10
20.523560
 20
12.685241
 30
0.0
 11
14.904282
 21
16.282228
 31
0.0
  0
LINE
  5
198
100
AcDbEntity
  8
Layer_1
 62
7
100
AcDbLine
 10
14.904282
 20
16.282228
 30
0.0
 11
11.536357
 21
21.014260
 31
0.0
  0
LINE
  5
199
100
AcDbEntity
  8
Layer_1
 62
7
100
AcDbLine
 10
11.536357
 20
21.014260
 30
0.0
 11
9.844875
 21
26.540289
 31
0.0
  0
LINE
  5
19a
100
AcDbEntity
  8
Layer_1
 62
7
100
AcDbLine
 10
9.844875
 20
26.540289
 30
0.0
 11
9.571089
 21
32.410418
 31
0.0
  0
LINE
  5
19b
100
AcDbEntity
  8
Layer_1
 62
7
100
AcDbLine
 10
9.571089
 20
32.410418
 30
0.0
 11
10.456268
 21
38.174756
 31
0.0
  0
LINE
  5
19c
100
AcDbEntity
  8
Layer_1
 62
7
100
AcDbLine
 10
10.456268
 20
38.174756
 30
0.0
 11
13.845804
 21
50.041007
 31
0.0
  0
LINE
  5
19d
100
AcDbEntity
  8
Layer_1
 62
7
100
AcDbLine
 10
13.845804
 20
50.041007
 30
0.0
 11
16.495555
 21
62.092486
 31
0.0
  0
LINE
  5
19e
100
AcDbEntity
  8
Layer_1
 62
7
100
AcDbLine
 10
16.495555
 20
62.092486
 30
0.0
 11
18.413441
 21
74.283315
 31
0.0
  0
LINE
  5
19f
100
AcDbEntity
  8
Layer_1
 62
7
100
AcDbLine
 10
18.413441
 20
74.283315
 30
0.0
 11
19.607371
 21
86.567618
 31
0.0
  0
LINE
  5
1a0
100
AcDbEntity
  8
Layer_1
 62
7
100
AcDbLine
 10
19.607371
 20
86.567618
 30
0.0
 11
20.348854
 21
123.902988
 31
0.0
  0
LINE
  5
1a1
100
AcDbEntity
  8
Layer_1
 62
7
100
AcDbLine
 10
20.348854
 20
123.902988
 30
0.0
 11
18.489520
 21
161.187332
 31
0.0
  0
LINE
  5
1a2
100
AcDbEntity
  8
Layer_1
 62
7
100
AcDbLine
 10
18.489520
 20
161.187332
 30
0.0
 11
15.696152
 21
198.452360
 31
0.0
  0
LINE
  5
1a3
100
AcDbEntity
  8
Layer_1
 62
7
100
AcDbLine
 10
15.696152
 20
198.452360
 30
0.0
 11
13.635543
 21
235.729798
 31
0.0
  0
LINE
  5
1a4
100
AcDbEntity
  8
Layer_1
 62
7
100
AcDbLine
 10
13.635543
 20
235.729798
 30
0.0
 11
13.599625
 21
245.254982
 31
0.0
  0
LINE
  5
1a5
100
AcDbEntity
  8
Layer_1
 62
7
100
AcDbLine
 10
13.599625
 20
245.254982
 30
0.0
 11
13.649934
 21
254.809322
 31
0.0
  0
LINE
  5
1a6
100
AcDbEntity
  8
Layer_1
 62
7
100
AcDbLine
 10
13.649934
 20
254.809322
 30
0.0
 11
14.512348
 21
264.248286
 31
0.0
  0
LINE
  5
1a7
100
AcDbEntity
  8
Layer_1
 62
7
100
AcDbLine
 10
14.512348
 20
264.248286
 30
0.0
 11
16.912744
 21
273.427348
 31
0.0
  0
LINE
  5
1a8
100
AcDbEntity
  8
Layer_1
 62
7
100
AcDbLine
 10
16.912744
 20
273.427348
 30
0.0
 11
20.378969
 21
277.970742
 31
0.0
  0
LINE
  5
1a9
100
AcDbEntity
  8
Layer_1
 62
7
100
AcDbLine
 10
20.378969
 20
277.970742
 30
0.0
 11
25.384195
 21
280.661157
 31
0.0
  0
LINE
  5
1aa
100
AcDbEntity
  8
Layer_1
 62
7
100
AcDbLine
 10
25.384195
 20
280.661157
 30
0.0
 11
31.096760
 21
281.421183
 31
0.0
  0
LINE
  5
1ab
100
AcDbEntity
  8
Layer_1
 62
7
100
AcDbLine
 10
31.096760
 20
281.421183
 30
0.0
 11
36.685000
 21
280.173407
 31
0.0
  0
ENDSEC
  0
SECTION
  2
OBJECTS
  0
DICTIONARY
  5
C
330
0
100
AcDbDictionary
  3
ACAD_GROUP
350
D
  3
ACAD_MLINESTYLE
350
17
  0
DICTIONARY
  5
D
330
C
100
AcDbDictionary
  0
DICTIONARY
  5
1A
330
C
100
AcDbDictionary
  0
DICTIONARY
  5
17
330
C
100
AcDbDictionary
  3
STANDARD
350
18
  0
DICTIONARY
  5
19
330
C
100
AcDbDictionary
  0
ENDSEC
  0
EOF
